<svg xmlns="http://www.w3.org/2000/svg" width="24" height="24" viewBox="0 0 24 24" fill="none">
  <path
    fill="#FFFFFF"
    d="M22.905 7.66551L22.8736 7.64085L22.729 7.52921L22.7013 7.50844L13.9072 0.706188C13.9072 0.706188 13.9072 0.706188 13.9059 0.706188L13.6721 0.525745C13.6721 0.525745 13.6708 0.525744 13.6708 0.524445C13.1956 0.19342 12.6236 0 12.0075 0H11.9912C11.3261 0 10.7126 0.224575 10.2173 0.604929C10.2047 0.614016 10.1934 0.624406 10.1808 0.633493L1.24588 7.54349C1.24463 7.54478 1.24337 7.54479 1.24211 7.54608L1.14405 7.62268C1.14279 7.62398 1.14153 7.62397 1.14028 7.62527C1.04599 7.70186 0.956732 7.78364 0.872499 7.87062C0.333159 8.42752 0 9.19602 0 10.045V20.9247C0 22.6227 1.33389 24 2.97831 24H4.19529C6.9121 24 9.12477 21.7373 9.13986 18.9321C9.13986 18.9139 9.13986 18.897 9.13986 18.8788V18.8672V18.8659C9.1386 18.8555 9.13861 18.8438 9.13861 18.8334C9.13861 18.823 9.1386 18.8113 9.13986 18.801V18.7997C9.13734 18.5154 9.10466 18.2259 9.03803 17.9377C8.8331 17.0394 8.3428 16.2878 7.68905 15.7607C7.0353 15.2337 6.21938 14.9312 5.36322 14.9312H5.35945C5.2287 14.9312 5.11053 14.8767 5.02504 14.7884C4.93955 14.7001 4.88675 14.5781 4.88675 14.4431C4.88675 14.3081 4.93955 14.1861 5.02504 14.0978C5.11053 14.0095 5.2287 13.955 5.35945 13.955C6.41801 13.955 7.37349 13.5058 8.05993 12.7828C8.72373 12.0831 9.13484 11.1264 9.13861 10.0697V10.0684C9.13861 10.0632 9.13861 10.058 9.13861 10.0528V10.0502C9.13861 10.0437 9.13861 10.0385 9.13861 10.0333V10.032C9.14238 9.90481 9.19518 9.78927 9.2769 9.70489C9.36239 9.61662 9.48056 9.56209 9.61131 9.56209C9.7408 9.56209 9.86024 9.61662 9.94573 9.70489C10.0312 9.79316 10.084 9.91518 10.084 10.0502V10.0528C10.084 11.1147 10.4951 12.0779 11.1614 12.7815C11.1715 12.7919 11.1803 12.8023 11.1904 12.8126C11.8743 13.5188 12.8184 13.955 13.8632 13.955C13.9939 13.955 14.1121 14.0095 14.1976 14.0978C14.2831 14.1861 14.3359 14.3081 14.3359 14.4431C14.3359 14.7118 14.1259 14.9286 13.8669 14.9312H13.8644C13.5778 14.9312 13.2874 14.965 12.997 15.0363C12.127 15.2479 11.3991 15.7542 10.8886 16.4293C10.3858 17.0926 10.0941 17.9195 10.0853 18.7893C10.0853 18.7958 10.0853 18.8022 10.0853 18.8087V18.8113C10.0853 18.8191 10.0865 18.8256 10.0865 18.8334C10.0865 18.8399 10.0865 18.8451 10.0865 18.8516C10.0865 18.8542 10.0865 18.8555 10.0865 18.8581C10.0865 18.8814 10.0865 18.9048 10.0865 18.9269C10.1016 21.7334 12.313 23.9987 15.0311 23.9987H21.0217C21.8439 23.9987 22.5882 23.6547 23.1275 23.0978C23.6668 22.5409 24 21.7724 24 20.9234V9.99307C23.9824 9.05582 23.56 8.21982 22.905 7.66551ZM18.9599 9.86586H18.9586C18.8128 9.86586 18.6657 9.88273 18.5186 9.91908C18.0773 10.0268 17.7077 10.2839 17.4487 10.6266C17.1935 10.9641 17.0452 11.3834 17.0414 11.8235V11.8351V11.8364C17.0414 11.8403 17.0414 11.8429 17.0414 11.8468C17.0414 11.8494 17.0414 11.8533 17.0414 11.8559V11.8598C17.0351 11.9909 16.9295 12.0948 16.8013 12.0948C16.7346 12.0948 16.6755 12.0675 16.6315 12.0221C16.5913 11.9805 16.5662 11.926 16.5624 11.8637C16.5624 11.8585 16.5624 11.8533 16.5624 11.8468C16.5624 11.8416 16.5624 11.8364 16.5624 11.8312V11.8299C16.5611 11.6859 16.5448 11.5392 16.5108 11.3925C16.4065 10.9368 16.1576 10.5552 15.8257 10.2878C15.4938 10.0203 15.0801 9.86716 14.6452 9.86716H14.6439C14.5773 9.86716 14.5182 9.8399 14.4742 9.79446C14.4302 9.75033 14.4038 9.68801 14.4038 9.61921C14.4038 9.55041 14.4302 9.4894 14.4742 9.44396C14.5182 9.39853 14.5773 9.37127 14.6439 9.37127C15.1807 9.37127 15.666 9.14279 16.0142 8.77672C16.3512 8.42103 16.5599 7.93553 16.5611 7.40069V7.39939C16.5611 7.3968 16.5611 7.3942 16.5611 7.39161V7.39031C16.5611 7.38771 16.5611 7.38511 16.5611 7.38122V7.37992C16.5636 7.31501 16.59 7.2566 16.6315 7.21376C16.6743 7.16833 16.7346 7.14107 16.8013 7.14107C16.8679 7.14107 16.927 7.16833 16.971 7.21376C17.015 7.2592 17.0414 7.32021 17.0414 7.38901V7.39161C17.0414 7.66162 17.0942 7.91865 17.1885 8.15231C17.2828 8.38598 17.4198 8.59757 17.5883 8.77672C17.5933 8.78191 17.5983 8.7871 17.6033 8.79229C17.9503 9.15058 18.4293 9.37257 18.9599 9.37257C19.0265 9.37257 19.0856 9.39983 19.1296 9.44526C19.1736 9.4894 19.2 9.55171 19.2 9.62051C19.1975 9.75551 19.0906 9.86456 18.9599 9.86586Z"
  />
</svg>
